<svg width="126" height="126" viewBox="0 0 126 126" fill="none" xmlns="http://www.w3.org/2000/svg">
<g filter="url(#filter0_d_21_171)">
<path d="M1.5 98.5C1.41667 98.4167 1.29167 98.1667 1.125 97.75C1.04167 97.4167 0.916667 97 0.75 96.5C0.583333 96.0833 0.416667 95.7083 0.25 95.375C0.0833333 95.0417 0 94.8333 0 94.75C0.5 93.8333 0.958333 93.2917 1.375 93.125C1.79167 92.9583 2.20833 92.7917 2.625 92.625C3.125 93.4583 3.5 93.875 3.75 93.875C4 93.875 4.08333 94 4 94.25C4.33333 94.4167 4.66667 94.4583 5 94.375C5.41667 94.2917 5.70833 94.3333 5.875 94.5C6.20833 94.6667 6.54167 94.75 6.875 94.75C7.20833 94.75 7.58333 94.75 8 94.75C8.66667 93.6667 9.04167 92.9583 9.125 92.625C8.95833 91.5417 8.95833 90.5 9.125 89.5C9.375 88.5 9.45833 87.4583 9.375 86.375C9.20833 85.5417 9.16667 85.125 9.25 85.125C9.33333 85.0417 9.375 84.9167 9.375 84.75C9.375 84.1667 9.29167 83.625 9.125 83.125C8.95833 82.5417 8.875 82 8.875 81.5C8.875 81.0833 8.95833 80.75 9.125 80.5C9.29167 80.25 9.375 79.9583 9.375 79.625C9.375 78.9583 9.29167 78.4583 9.125 78.125C9.04167 77.7083 9.20833 77.125 9.625 76.375C9.45833 75.7083 9.41667 75.25 9.5 75C9.66667 74.75 9.79167 74.5 9.875 74.25C9.875 74 9.83333 73.7917 9.75 73.625C9.75 73.375 9.79167 73.125 9.875 72.875C9.95833 72.375 10.0833 71.9167 10.25 71.5C10.4167 71 10.5 70.5 10.5 70C10.5 69.6667 10.4167 69.375 10.25 69.125C10.1667 68.875 10.125 68.5833 10.125 68.25C9.95833 67.6667 9.91667 67.125 10 66.625C10.0833 66.0417 10.125 65.4583 10.125 64.875C10.0417 64.625 10.125 64.4167 10.375 64.25C10.625 64.0833 10.75 63.8333 10.75 63.5L11.5 58.625C11.5833 57.7917 11.5833 56.9583 11.5 56.125C11.5 55.2917 11.5833 54.4167 11.75 53.5C11.8333 52.6667 11.9583 51.875 12.125 51.125C12.2917 50.2917 12.375 49.4583 12.375 48.625C12.4583 47.9583 12.4167 47.3333 12.25 46.75C12.1667 46.1667 12.125 45.5417 12.125 44.875C12.125 43.7917 12.2083 42.75 12.375 41.75C12.5417 40.75 12.625 39.7083 12.625 38.625C12.625 37.5417 12.5833 36.4583 12.5 35.375C12.4167 34.2917 12.4583 33.2083 12.625 32.125C12.7083 32.0417 12.7917 31.6667 12.875 31C13.0417 30.3333 13.125 29.9167 13.125 29.75C13.125 29.1667 13.0833 28.625 13 28.125C12.9167 27.5417 12.875 26.9167 12.875 26.25C13.0417 25.3333 13.0833 24.7917 13 24.625C12.9167 24.4583 12.875 24.2917 12.875 24.125C12.7917 23.2917 12.7917 22.4583 12.875 21.625C12.9583 20.7917 12.9583 19.9583 12.875 19.125C12.7083 18.125 12.6667 17.5833 12.75 17.5C12.9167 17.3333 13.0417 17.1667 13.125 17C13.2083 15.9167 13.2917 15.125 13.375 14.625C13.5417 14.0417 13.6667 13.4167 13.75 12.75C13.9167 11.5833 14 10.4167 14 9.25C14 8.08333 14 6.91667 14 5.75C13.1667 5.16667 12.125 4.95833 10.875 5.125C9.70833 5.20833 8.54167 5.41667 7.375 5.75C6.20833 6.08333 5.16667 6.45833 4.25 6.875C3.33333 7.20833 2.79167 7.375 2.625 7.375C2.29167 7.375 2 7.29167 1.75 7.125C1.5 6.95833 1.41667 6.66667 1.5 6.25C0.916667 5.91667 0.583333 5.625 0.5 5.375C0.416667 5.125 0.416667 4.875 0.5 4.625C0.666667 4.375 0.833333 4.16667 1 4C1.25 3.75 1.33333 3.5 1.25 3.25C2.41667 3.08333 3.54167 2.79167 4.625 2.375C5.79167 1.95833 7 1.70833 8.25 1.625C8.66667 1.54167 9.04167 1.54167 9.375 1.625C9.70833 1.625 10.0833 1.625 10.5 1.625C11.3333 1.54167 12.125 1.45833 12.875 1.375C13.625 1.20833 14.4167 1.04167 15.25 0.875C15.8333 0.875 16.25 0.833333 16.5 0.75C16.75 0.583333 17 0.5 17.25 0.5C18.25 0.583333 18.7917 0.625 18.875 0.625C19.0417 0.541667 19.2083 0.5 19.375 0.5C19.875 0.416667 20.375 0.458333 20.875 0.625C21.375 0.708333 21.875 0.708333 22.375 0.625C22.7083 0.625 23.0833 0.541667 23.5 0.375C23.9167 0.208333 24.25 0.166667 24.5 0.25C25.0833 0.0833333 25.625 0.0833333 26.125 0.25C26.625 0.416667 27.1667 0.5 27.75 0.5C28.4167 0.5 29.0417 0.416667 29.625 0.25C30.2083 0.0833333 30.8333 0 31.5 0C32.1667 0 32.8333 0.125 33.5 0.375C34.25 0.541667 34.9583 0.625 35.625 0.625C36.0417 0.625 36.375 0.583333 36.625 0.5C36.875 0.416667 37.1667 0.416667 37.5 0.5C38 0.5 38.4583 0.583333 38.875 0.75C39.375 0.916667 39.875 1.04167 40.375 1.125C40.7083 1.20833 41 1.20833 41.25 1.125C41.5833 0.958333 41.9167 0.875 42.25 0.875C42.4167 0.875 42.625 0.916667 42.875 1C43.125 1.08333 43.375 1.125 43.625 1.125C44.2083 1.125 44.7917 1.08333 45.375 1C46.0417 0.833333 46.625 1.04167 47.125 1.625C48.5417 1.79167 49.8333 2.08333 51 2.5C52.25 2.83333 53.5 3.25 54.75 3.75C55.25 3.91667 55.625 4.16667 55.875 4.5C56.2083 4.75 56.7083 4.79167 57.375 4.625C57.9583 5.29167 58.5 5.875 59 6.375C59.5833 6.79167 60.3333 7.08333 61.25 7.25C61.6667 7.66667 62 8.125 62.25 8.625C63.0833 9.125 63.625 9.41667 63.875 9.5C64.125 9.58333 64.3333 9.66667 64.5 9.75C64.75 10.0833 65 10.375 65.25 10.625C65.5833 10.7917 65.9583 11 66.375 11.25C66.7917 11.5833 67.25 11.9167 67.75 12.25C68 12.5833 68.1667 12.9167 68.25 13.25C68.4167 13.5833 68.5833 13.875 68.75 14.125C68.9167 14.4583 69.1667 14.6667 69.5 14.75C69.8333 14.75 69.9583 15.0417 69.875 15.625C70.7917 16.625 71.375 17.4167 71.625 18C71.9583 18.5 72.3333 19 72.75 19.5C73.25 20.1667 73.5 20.5833 73.5 20.75C73.5 20.8333 73.5417 20.9583 73.625 21.125C74.0417 21.4583 74.2083 21.7917 74.125 22.125C74.125 22.375 74.3333 22.4583 74.75 22.375C74.5833 22.7917 74.625 23.0833 74.875 23.25C75.125 23.4167 75.1667 23.7917 75 24.375C75.4167 24.875 75.7917 25.4167 76.125 26C76.5417 26.5833 76.625 27.2083 76.375 27.875C76.875 28.5417 77.2917 29.25 77.625 30C77.9583 30.6667 78.4167 31.2917 79 31.875C79.0833 32.4583 79.125 32.9583 79.125 33.375C79.2083 33.7917 79.4583 34.2083 79.875 34.625C79.9583 35.5417 80.125 36.4167 80.375 37.25C80.7083 38.0833 81.0417 38.9167 81.375 39.75C81.5417 40.1667 81.5833 40.625 81.5 41.125C81.5 41.5417 81.5 41.9583 81.5 42.375C81.5833 42.7917 81.7083 43.1667 81.875 43.5C82.0417 43.8333 82.1667 44.2083 82.25 44.625C82.3333 44.9583 82.3333 45.25 82.25 45.5C82.1667 45.75 82.1667 46 82.25 46.25C82.3333 46.5 82.4167 46.75 82.5 47C82.5833 47.25 82.6667 47.5 82.75 47.75C82.9167 48.9167 82.875 50.0833 82.625 51.25C82.375 52.3333 82.1667 53.4583 82 54.625C81.9167 55.4583 81.8333 56.2917 81.75 57.125C81.75 57.9583 81.6667 58.7917 81.5 59.625C81.4167 59.9583 81.2917 60.2917 81.125 60.625C81.0417 60.9583 80.9583 61.2917 80.875 61.625C80.5417 63.0417 80.3333 64.4167 80.25 65.75C80.25 67.0833 80.0417 68.4583 79.625 69.875C79.4583 70.5417 79.2083 71.2083 78.875 71.875C78.625 72.5417 78.4167 73.25 78.25 74C78.25 74.1667 78 74.5833 77.5 75.25C77.0833 75.9167 76.7917 76.2917 76.625 76.375C76.625 76.7083 76.5417 76.9583 76.375 77.125C76.2917 77.2917 76.2917 77.5833 76.375 78C76.2917 78 76.0833 78.1667 75.75 78.5C75.4167 78.75 75.0417 79.0417 74.625 79.375C74.2917 79.625 73.9583 79.9167 73.625 80.25C73.375 80.5 73.2083 80.6667 73.125 80.75C72.875 81.4167 72.5417 81.9167 72.125 82.25C71.7083 82.5 71.4167 82.7083 71.25 82.875C70.3333 83.7917 69.4167 84.625 68.5 85.375C67.5833 86.125 66.6667 86.9167 65.75 87.75C65.4167 88 65.0417 88.2083 64.625 88.375C64.2917 88.5417 63.9583 88.7083 63.625 88.875C63.4583 89.0417 63.25 89.2083 63 89.375C62.8333 89.5417 62.6667 89.7083 62.5 89.875C61.8333 90.0417 61.5 90.1667 61.5 90.25C61.5 90.3333 61.4167 90.4167 61.25 90.5C61.0833 90.6667 60.875 90.75 60.625 90.75C60.375 90.75 60.125 90.8333 59.875 91C58.7083 91.5833 57.9167 92.0417 57.5 92.375C57.0833 92.625 56.625 92.875 56.125 93.125C55.9583 93.2083 55.75 93.2917 55.5 93.375C55.25 93.375 55 93.4583 54.75 93.625C53.5 94.2083 52.625 94.5417 52.125 94.625C51.625 94.7917 51.125 95 50.625 95.25C50.2083 95.4167 49.7917 95.5833 49.375 95.75C48.9583 96 48.5 96.2083 48 96.375L46.625 96.125C45.7917 96.5417 45.25 96.7917 45 96.875C44.8333 96.9583 44.6667 97 44.5 97C43.8333 97.1667 43.0833 97.25 42.25 97.25C41.4167 97.25 40.7083 97.5 40.125 98C38.4583 97.8333 36.7917 97.9167 35.125 98.25C33.5417 98.6667 31.9583 98.9583 30.375 99.125C29.5417 99.2917 29.0417 99.3333 28.875 99.25C28.7917 99.1667 28.6667 99.125 28.5 99.125C27.6667 99.2083 26.875 99.375 26.125 99.625C25.375 99.875 24.5833 100.042 23.75 100.125C23.0833 100.125 22.375 100.042 21.625 99.875C20.875 99.7083 20.125 99.625 19.375 99.625C19.125 99.625 18.875 99.6667 18.625 99.75C18.4583 99.8333 18.25 99.875 18 99.875C17.1667 99.7083 16.7083 99.6667 16.625 99.75C16.625 99.8333 16.5417 99.875 16.375 99.875C16.125 99.875 15.875 99.7917 15.625 99.625C15.4583 99.4583 15.25 99.375 15 99.375C14.5 99.375 14 99.4167 13.5 99.5C13.0833 99.5833 12.625 99.625 12.125 99.625C11.9583 99.625 11.75 99.5833 11.5 99.5C11.25 99.4167 11 99.375 10.75 99.375C10.5 99.375 10.25 99.4167 10 99.5C9.83333 99.5833 9.625 99.625 9.375 99.625C8.70833 99.2917 8.29167 99.125 8.125 99.125C8.04167 99.2083 7.91667 99.2083 7.75 99.125C7.08333 99.0417 6.5 98.9167 6 98.75C5.5 98.5833 4.91667 98.5 4.25 98.5C3.83333 98.4167 3.375 98.4167 2.875 98.5C2.375 98.6667 1.91667 98.6667 1.5 98.5ZM45.5 92.875C46.25 92.7083 46.625 92.625 46.625 92.625C46.625 92.5417 46.7083 92.4583 46.875 92.375C47.125 92.2083 47.4167 92.125 47.75 92.125C48.0833 92.125 48.4167 92.0417 48.75 91.875C49.9167 91.5417 51.2083 90.9583 52.625 90.125C53.2917 89.7083 53.6667 89.5 53.75 89.5C53.9167 89.5 54.0833 89.4583 54.25 89.375C55.25 88.7917 56.0417 88.4167 56.625 88.25C57.2083 88 57.75 87.75 58.25 87.5C58.5 87.3333 58.7083 87.2083 58.875 87.125C59.125 86.9583 59.375 86.7917 59.625 86.625C59.875 86.4583 60.125 86.3333 60.375 86.25C60.7083 86.1667 61 86.0417 61.25 85.875C61.5 85.7083 61.7083 85.5417 61.875 85.375C62.0417 85.125 62.25 84.9167 62.5 84.75C62.6667 84.5833 62.875 84.4167 63.125 84.25C63.375 84.0833 63.625 83.9167 63.875 83.75C64.2917 83.3333 64.6667 82.9583 65 82.625C65.4167 82.2083 65.9583 81.9167 66.625 81.75C66.875 80.9167 67.25 80.4167 67.75 80.25C68.3333 80 68.9167 79.625 69.5 79.125C69.5 79.125 69.625 78.9583 69.875 78.625C70.125 78.2917 70.4167 77.9583 70.75 77.625C71.0833 77.2917 71.375 76.9583 71.625 76.625C71.875 76.2917 72 76.125 72 76.125C72.75 75.375 73.0833 74.9167 73 74.75C73 74.5833 73.0417 74.4167 73.125 74.25C73.7917 73.5833 74.0833 73.0833 74 72.75C73.9167 72.4167 73.9583 72.125 74.125 71.875C75.0417 71.125 75.4583 70.1667 75.375 69C75.375 67.8333 75.5833 66.7917 76 65.875C76.3333 65.4583 76.4167 65.1667 76.25 65C76.1667 64.8333 76.1667 64.6667 76.25 64.5C76.3333 62.9167 76.625 61.3333 77.125 59.75C77.625 58.0833 77.875 56.5417 77.875 55.125C77.875 54.875 77.7917 54.6667 77.625 54.5C77.5417 54.25 77.5417 54 77.625 53.75C77.625 53.6667 77.6667 53.4583 77.75 53.125C77.8333 52.7083 77.9167 52.2917 78 51.875C78.1667 51.375 78.2917 50.9583 78.375 50.625C78.4583 50.2083 78.5 50 78.5 50C78.0833 49.8333 77.9167 49.5833 78 49.25C78.1667 48.9167 78.3333 48.625 78.5 48.375C78.25 48.2083 78.125 48 78.125 47.75C78.125 47.4167 78.0833 47.0833 78 46.75C78 45.9167 77.9583 45.2917 77.875 44.875C77.7083 44.5417 77.5417 44.25 77.375 44C77.2917 43.75 77.2083 43.4167 77.125 43C77.0417 42.5833 76.9583 42.0417 76.875 41.375C76.875 40.7083 76.7917 40.1667 76.625 39.75C76.4583 39.3333 76.375 38.9583 76.375 38.625C76.4583 38.2083 76.4167 37.8333 76.25 37.5C75.9167 36.75 75.6667 36.2083 75.5 35.875C75.3333 35.4583 75.1667 35.0833 75 34.75C74.8333 34.3333 74.7083 34 74.625 33.75C74.5417 33.4167 74.5833 33.25 74.75 33.25C74.5 32.8333 74.125 32.2083 73.625 31.375C73.2083 30.4583 72.9167 29.9167 72.75 29.75C72.75 29 72.4167 28.2917 71.75 27.625C71.75 27.2083 71.6667 26.875 71.5 26.625C71.3333 26.2917 71.125 25.9583 70.875 25.625V24.125C70.375 23.7083 70 23.2083 69.75 22.625C69.5833 21.9583 69.1667 21.4583 68.5 21.125C68.4167 20.625 68.1667 20.25 67.75 20C67.4167 19.75 67.2917 19.2917 67.375 18.625C66.5417 17.7083 65.8333 17.0833 65.25 16.75C64.75 16.3333 64.2917 16 63.875 15.75C63.7917 15.5833 63.625 15.3333 63.375 15C63.2083 14.5833 63.0417 14.2917 62.875 14.125C62.2917 13.9583 61.7917 13.7083 61.375 13.375C60.9583 13.0417 60.5 12.6667 60 12.25C59.5 11.75 59.0417 11.3333 58.625 11C58.2083 10.5833 58 10.3333 58 10.25C57.8333 10.25 57.4583 10.125 56.875 9.875C56.375 9.54167 55.7917 9.20833 55.125 8.875C54.5417 8.54167 53.9583 8.25 53.375 8C52.875 7.66667 52.5833 7.41667 52.5 7.25C52.0833 7.41667 51.7083 7.45833 51.375 7.375C51.0417 7.20833 50.7083 7.04167 50.375 6.875C50.125 6.70833 49.8333 6.58333 49.5 6.5C49.1667 6.33333 48.8333 6.33333 48.5 6.5C47.9167 5.91667 47.2083 5.66667 46.375 5.75C45.5417 5.75 44.7917 5.66667 44.125 5.5C42.625 5.08333 41.4583 4.83333 40.625 4.75C39.875 4.66667 39.1667 4.625 38.5 4.625C38.0833 4.625 37.6667 4.66667 37.25 4.75C36.9167 4.83333 36.5417 4.875 36.125 4.875C35.5417 4.375 35.0417 4.20833 34.625 4.375C34.2083 4.45833 33.7917 4.54167 33.375 4.625C32.875 4.20833 32.125 4.08333 31.125 4.25C30.125 4.41667 29.3333 4.54167 28.75 4.625C28.5 5.29167 28.4583 5.95833 28.625 6.625C28.7917 7.29167 28.875 7.95833 28.875 8.625C28.875 8.875 28.8333 9.125 28.75 9.375C28.6667 9.625 28.6667 9.91667 28.75 10.25V16.5C29 17.0833 29.0417 17.5 28.875 17.75C28.7083 17.9167 28.6667 18.2083 28.75 18.625C28.75 19.5417 28.875 20.4583 29.125 21.375C29.4583 22.2917 29.625 23.2083 29.625 24.125C29.5417 25.4583 29.5 26.75 29.5 28C29.5 29.25 29.625 30.5417 29.875 31.875C29.4583 32.2083 29.2917 32.5 29.375 32.75C29.4583 33 29.5417 33.3333 29.625 33.75C29.7917 34.75 29.875 35.9167 29.875 37.25C29.875 38.5 29.7083 39.5833 29.375 40.5C29.7083 41.75 29.875 43.0417 29.875 44.375C29.875 45.7083 29.7917 47.0417 29.625 48.375C29.4583 49.5417 29.4167 50.7917 29.5 52.125C29.6667 53.4583 29.875 54.7083 30.125 55.875C29.7083 56.0417 29.5417 56.3333 29.625 56.75C29.7083 57.0833 29.7083 57.4167 29.625 57.75C29.5417 58.0833 29.4167 58.4167 29.25 58.75C29.0833 59.0833 28.9583 59.4167 28.875 59.75C28.7917 60.4167 28.75 61.0833 28.75 61.75C28.75 62.3333 28.6667 62.9167 28.5 63.5C29.0833 64.4167 29.1667 65.4167 28.75 66.5C28.4167 67.5 28.1667 68.4583 28 69.375C27.75 71.375 27.8333 73.4583 28.25 75.625C27.8333 76.0417 27.6667 76.4583 27.75 76.875C27.9167 77.2083 28 77.5833 28 78C27.75 79.25 27.625 80.1667 27.625 80.75C27.7083 81.3333 27.75 81.9583 27.75 82.625C27.75 83.125 27.7083 83.7917 27.625 84.625C27.5417 85.375 27.4583 86.1667 27.375 87C27.2917 87.75 27.2917 88.5 27.375 89.25C27.4583 90 27.6667 90.5833 28 91C27.5833 91.1667 27.4583 91.4583 27.625 91.875C27.875 92.2083 28.0833 92.4583 28.25 92.625C28.1667 93.4583 28.25 94.0833 28.5 94.5C28.75 94.8333 28.9583 95.125 29.125 95.375C29.875 95.2917 30.625 95.25 31.375 95.25C32.125 95.25 32.875 95.1667 33.625 95C33.875 94.9167 34.125 94.7917 34.375 94.625C34.7083 94.4583 35 94.3333 35.25 94.25C36.0833 94.5 37 94.4583 38 94.125C39 93.7917 39.7917 93.625 40.375 93.625C41.125 93.7083 41.625 93.6667 41.875 93.5C42.125 93.3333 42.375 93.2083 42.625 93.125C43.625 93.0417 44.125 92.9583 44.125 92.875C44.2083 92.7083 44.3333 92.625 44.5 92.625L45.5 92.875ZM19.125 4.625C18.875 5.70833 18.6667 6.83333 18.5 8C18.3333 9.08333 18.25 10.2083 18.25 11.375C18.4167 12.9583 18.375 14.1667 18.125 15C17.875 15.8333 17.9167 16.625 18.25 17.375C17.4167 17.9583 17.0417 18.7083 17.125 19.625C17.2083 20.5417 17.3333 21.375 17.5 22.125C17.4167 23.625 17.3333 24.7083 17.25 25.375C17.1667 26.0417 17.1667 26.75 17.25 27.5C17.3333 27.9167 17.4167 28.2917 17.5 28.625C17.6667 28.9583 17.75 29.3333 17.75 29.75C17.75 30.4167 17.6667 31.125 17.5 31.875C17.3333 32.625 17.1667 33.3333 17 34C16.9167 34.5833 16.875 35.1667 16.875 35.75C16.875 36.25 16.875 36.8333 16.875 37.5C16.875 37.8333 16.9167 38.1667 17 38.5C17.0833 38.75 17.0833 39.0417 17 39.375C17 39.7083 16.9167 40 16.75 40.25C16.6667 40.5 16.625 40.7917 16.625 41.125C16.5417 41.875 16.5417 42.5833 16.625 43.25C16.7917 43.8333 16.7083 44.4583 16.375 45.125C16.625 45.625 16.875 46.125 17.125 46.625C17.375 47.125 17.3333 47.625 17 48.125C17 48.5417 17.0417 48.875 17.125 49.125C17.2083 49.375 17.1667 49.6667 17 50C16.9167 50.5 16.8333 51 16.75 51.5C16.75 51.9167 16.7083 52.375 16.625 52.875C16.5417 53.125 16.4167 53.375 16.25 53.625C16.1667 53.875 16.125 54.1667 16.125 54.5C16.125 54.75 16.1667 55 16.25 55.25C16.3333 55.5 16.375 55.7917 16.375 56.125C16.375 56.625 16.3333 57.1667 16.25 57.75C16.25 58.25 16.2083 58.7917 16.125 59.375C16.0417 59.625 15.9583 59.875 15.875 60.125C15.7917 60.2917 15.7083 60.5 15.625 60.75C15.625 61 15.625 61.25 15.625 61.5C15.7083 61.6667 15.7083 61.875 15.625 62.125C15.5417 62.4583 15.4167 62.7917 15.25 63.125C15.1667 63.375 15.0833 63.6667 15 64C14.75 65.1667 14.6667 66.3333 14.75 67.5C14.8333 68.6667 14.8333 69.8333 14.75 71C14.75 71.3333 14.6667 71.6667 14.5 72C14.4167 72.25 14.5 72.5417 14.75 72.875C14.4167 73.5417 14.1667 74.0833 14 74.5C14.3333 75.5 14.2083 76.6667 13.625 78C13.7083 78.4167 13.7917 78.7917 13.875 79.125C13.9583 79.4583 14 79.8333 14 80.25C14 80.5 13.9167 80.75 13.75 81C13.6667 81.25 13.625 81.5 13.625 81.75C13.5417 82 13.5417 82.25 13.625 82.5C13.7083 82.75 13.75 83.0417 13.75 83.375C13.75 84.2917 13.6667 85.1667 13.5 86C13.4167 86.8333 13.375 87.7083 13.375 88.625C13.375 89.0417 13.4583 89.5833 13.625 90.25C13.625 90.9167 13.5417 91.5417 13.375 92.125C13.2917 92.7083 13.4167 93.25 13.75 93.75C13.75 94.0833 13.625 94.4583 13.375 94.875C13.125 95.375 13.125 95.7083 13.375 95.875C14.2083 96.125 14.75 96.1667 15 96C15.3333 95.9167 15.625 95.875 15.875 95.875C16.125 95.875 16.3333 95.9167 16.5 96C16.75 96.0833 17 96.125 17.25 96.125C17.5833 96.125 17.875 96.0833 18.125 96C18.375 95.9167 18.625 95.875 18.875 95.875C19.125 95.875 19.375 95.9167 19.625 96C19.875 96.0833 20.125 96.125 20.375 96.125C20.7917 96.125 21.2083 96 21.625 95.75C22.0417 95.5 22.4583 95.4583 22.875 95.625C22.7917 94.9583 22.7917 94.2917 22.875 93.625C23.0417 92.875 23.125 92.1667 23.125 91.5C23.0417 90.5833 22.9167 89.7083 22.75 88.875C22.6667 88.0417 22.625 87.2083 22.625 86.375C22.7917 85.125 22.8333 84.25 22.75 83.75C22.6667 83.25 22.7917 82.7917 23.125 82.375C22.7917 81.625 22.75 80.9583 23 80.375C23.3333 79.7917 23.375 79.0833 23.125 78.25C23.7083 77.5833 23.9167 76.9583 23.75 76.375C23.6667 75.7917 23.625 75.1667 23.625 74.5C23.7917 73.25 23.7917 72.4167 23.625 72C23.5417 71.5833 23.5417 71.1667 23.625 70.75C23.625 70.0833 23.6667 69.4167 23.75 68.75C23.9167 68.0833 24 67.4167 24 66.75C24.0833 66.25 24.0833 65.75 24 65.25C24 64.75 24 64.25 24 63.75C24 63.5 23.9583 63.25 23.875 63C23.875 62.6667 23.9167 62.375 24 62.125C24.4167 61.2083 24.5833 60.3333 24.5 59.5C24.4167 58.5833 24.5 57.6667 24.75 56.75C25.0833 56.0833 25.25 55.5833 25.25 55.25C25.3333 54.8333 25.4167 54.375 25.5 53.875C25.5833 53.375 25.625 52.9583 25.625 52.625C25.625 52.2083 25.625 51.9583 25.625 51.875C25.625 51.5417 25.5417 51.25 25.375 51C25.2917 50.6667 25.25 50.3333 25.25 50C25.1667 49.6667 25.1667 49.3333 25.25 49C25.4167 48.6667 25.4583 48.2917 25.375 47.875C25.2917 46.2083 25.2917 44.5417 25.375 42.875C25.4583 41.125 25.4583 39.4167 25.375 37.75C25.375 37.3333 25.3333 36.9583 25.25 36.625C25.25 36.2917 25.25 35.9583 25.25 35.625C25.1667 34.625 25.0833 33.6667 25 32.75C25 31.75 25 30.75 25 29.75C25 29.5 25.0417 29.25 25.125 29C25.2083 28.75 25.25 28.4583 25.25 28.125C25.25 27.7917 25.2083 27.4583 25.125 27.125C25.0417 26.7917 25 26.4167 25 26C24.9167 24.3333 24.7917 22.6667 24.625 21C24.5417 19.3333 24.5 17.6667 24.5 16C24.5 15.3333 24.4167 14.5833 24.25 13.75C24.1667 12.8333 24.3333 12.0417 24.75 11.375C24.3333 10.5417 24.1667 9.70833 24.25 8.875C24.3333 7.95833 24.0417 7.08333 23.375 6.25C23.125 6 23.0833 5.66667 23.25 5.25C23.5 4.75 23.2917 4.45833 22.625 4.375C22.0417 4.70833 21.4583 4.83333 20.875 4.75C20.375 4.66667 19.7917 4.625 19.125 4.625Z" fill="#B6EADA"/>
<path d="M64.8416 31.7285C64.7265 32.5906 64.7089 33.1156 64.7886 33.3035C64.8684 33.4914 64.7784 33.7515 64.5185 34.0836C63.6207 34.6125 62.9607 35.0406 62.5383 35.3677C62.184 35.666 61.7351 35.9305 61.1917 36.1611C60.2525 36.7816 59.5792 37.1783 59.1716 37.3513C58.7375 37.4616 58.485 37.7167 58.4141 38.1164C58.0213 38.1353 57.5798 38.3227 57.0896 38.6786C56.5727 38.972 56.1578 39.222 55.8448 39.4288C55.7208 39.7033 55.7459 39.9514 55.9202 40.1731C56.0945 40.3949 56.2008 40.6454 56.2393 40.9248C56.2511 41.1416 56.263 41.3584 56.2748 41.5752C56.2601 41.7293 56.2586 41.9147 56.2705 42.1315C56.4153 42.6615 56.6147 43.1313 56.8688 43.541C57.1908 43.9219 57.4581 44.3629 57.6709 44.864C57.8954 45.582 58.1879 46.271 58.5484 46.9313C58.9088 47.5916 59.2559 48.2205 59.5898 48.8181C59.897 49.3531 60.2382 49.8737 60.6134 50.3798C60.962 50.8233 61.3239 51.2981 61.6991 51.8042C61.9679 52.0598 62.1481 52.3899 62.2397 52.7946C62.3727 53.1079 62.5396 53.4067 62.7405 53.6911C62.8882 53.8502 63.0698 53.9949 63.2855 54.1251C63.5011 54.2554 63.6281 54.4602 63.6666 54.7396C63.448 54.9803 63.5943 55.3248 64.1053 55.7733C64.6577 56.1303 65.0343 56.451 65.2352 56.7354C65.2884 56.8607 65.3209 57.0317 65.3327 57.2485C65.3446 57.4652 65.3904 57.6676 65.4702 57.8555C65.5499 58.0435 65.6297 58.2314 65.7095 58.4193C65.8306 58.5158 65.965 58.6436 66.1127 58.8027C66.1925 58.9906 66.2383 59.1929 66.2501 59.4097C66.262 59.6265 66.2945 59.7975 66.3477 59.9228L67.5443 62.7418C67.6241 62.9298 67.7644 63.1659 67.9653 63.4503C68.1662 63.7347 68.2932 63.9396 68.3464 64.0649C68.7481 64.6336 68.9416 64.9951 68.9269 65.1492C68.8856 65.2407 68.8915 65.3491 68.9447 65.4744C69.184 66.0382 69.4366 66.6333 69.7025 67.2598C69.9418 67.8236 70.2151 68.3729 70.5224 68.9079C70.6967 69.1297 70.871 69.3514 71.0453 69.5732C71.2609 69.7034 71.4219 69.8939 71.5282 70.1444C71.7557 70.4915 71.8813 70.8818 71.905 71.3153C71.97 71.6574 72.0823 72.0163 72.2419 72.3922C72.4162 72.6139 72.5904 72.8357 72.7647 73.0574C72.939 73.2792 73.1133 73.5009 73.2876 73.7227C73.394 73.9733 73.4664 74.2383 73.5048 74.5177C73.5167 74.7344 73.5758 74.9681 73.6821 75.2187C73.8949 75.7199 74.1622 76.1609 74.4842 76.5417C74.8062 76.9226 75.1415 77.3347 75.4901 77.7782C75.8121 78.1591 76.0528 78.5374 76.2124 78.9133C76.3719 79.2892 76.5788 79.6819 76.8328 80.0916C76.9805 80.2507 77.1282 80.4098 77.2759 80.5689C77.465 80.6366 77.5994 80.7643 77.6791 80.9523C77.88 81.2367 77.979 81.5643 77.9761 81.9352C77.9466 82.2434 78.0323 82.5398 78.2332 82.8242C78.1771 83.0698 78.3573 83.3999 78.7739 83.8146C79.2583 84.2004 79.5478 84.4102 79.6423 84.444C80.0175 84.9501 80.3247 85.4851 80.564 86.0489C80.8034 86.6127 81.1106 87.1477 81.4858 87.6538C81.861 88.16 82.0072 88.5045 81.9245 88.6875C81.9098 88.8416 81.963 88.9669 82.0841 89.0634C82.8758 89.9842 83.3573 90.7409 83.5287 91.3335C83.7001 91.9262 83.9055 92.5044 84.1448 93.0682C84.4639 93.8199 84.6633 94.2898 84.7431 94.4777C85.5495 95.2444 86.0118 95.8614 86.13 96.3287C86.2483 96.7961 86.5776 97.0999 87.1181 97.2401C87.2098 97.6448 87.39 97.9749 87.6588 98.2305C87.9276 98.4861 88.1078 98.8162 88.1994 99.2209C88.5214 99.6017 88.8242 99.8429 89.1078 99.9443C89.4592 100.017 89.6867 100.364 89.7902 100.985C90.9597 100.341 92.1883 99.9305 93.476 99.7536C94.8317 99.5478 96.1208 99.1854 97.3435 98.6664C97.6831 98.5223 97.9283 98.3443 98.0789 98.1325C98.2974 97.8919 98.5765 97.6995 98.9161 97.5553C99.1199 97.4688 99.3503 97.445 99.6072 97.4837C99.8642 97.5225 100.129 97.4843 100.4 97.3689C101.038 97.1721 101.589 96.8643 102.053 96.4457C102.584 95.9983 103.142 95.6135 103.727 95.2914C104.203 95.0895 104.691 94.919 105.193 94.7798C105.696 94.6407 106.184 94.4701 106.66 94.2683C106.999 94.1241 107.482 93.8452 108.108 93.4316C109.059 93.028 110.044 92.6099 111.063 92.1774C112.123 91.6534 112.989 90.9534 113.659 90.0774C113.375 89.976 113.228 89.8169 113.216 89.6001C113.245 89.2919 113.22 89.0438 113.141 88.8558C112.993 88.6967 112.824 88.5834 112.635 88.5157C112.488 88.3566 112.374 88.1831 112.294 87.9952C111.946 87.5517 111.731 87.236 111.652 87.048C111.504 86.8889 111.437 86.7323 111.452 86.5782C111.44 86.3614 111.347 86.1422 111.173 85.9204C110.42 85.279 109.963 84.7704 109.804 84.3946C109.618 83.956 109.288 83.6522 108.816 83.4832C108.928 82.992 108.836 82.5873 108.541 82.2691C108.245 81.9509 108.018 81.6038 107.858 81.228C107.684 81.0062 107.557 80.8014 107.477 80.6134C107.465 80.3967 107.42 80.1943 107.34 80.0064C107.166 79.7846 106.938 79.4376 106.657 78.9653C106.445 78.4641 106.232 77.963 106.019 77.4618C105.78 76.898 105.567 76.3968 105.381 75.9583C105.236 75.4283 105.145 75.0236 105.106 74.7442C104.988 74.2768 104.843 73.7469 104.672 73.1542C104.568 72.5327 104.356 72.0316 104.034 71.6507C103.481 71.2937 103.199 71.0069 103.187 70.7901C103.217 70.4818 103.178 70.2024 103.072 69.9518C102.924 69.7927 102.756 69.6794 102.567 69.6118C102.419 69.4527 102.305 69.2791 102.226 69.0912C102.093 68.778 102.041 68.4672 102.07 68.159C102.1 67.8507 102.116 67.5112 102.119 67.1403C102.406 66.8708 102.773 66.6039 103.222 66.3394C103.712 65.9834 104.201 65.8129 104.688 65.8278C105.539 66.1322 106.058 66.5036 106.244 66.9421C106.377 67.2553 106.428 67.566 106.399 67.8743C106.411 68.0911 106.449 68.3705 106.514 68.7125C106.86 69.5269 107.24 70.3269 107.653 71.1124C108.108 71.8065 108.474 72.5752 108.752 73.4184C109.018 74.0448 109.216 74.7001 109.346 75.3842C109.45 76.0057 109.634 76.6297 109.9 77.2561C110.101 77.5405 110.289 77.7936 110.463 78.0153C110.705 78.2082 110.893 78.4613 111.026 78.7745C111.171 79.3045 111.317 79.6491 111.464 79.8082C111.919 80.5023 112.166 80.989 112.205 81.2684C112.216 81.4852 112.276 81.7189 112.382 81.9694C112.583 82.2538 112.831 82.5551 113.126 82.8733C113.422 83.1915 113.67 83.4928 113.871 83.7772C114.083 84.2784 114.25 84.5772 114.371 84.6737C114.534 84.6786 114.642 84.7438 114.695 84.8691C115.044 85.3125 115.311 85.7536 115.497 86.1921C115.683 86.6306 115.951 87.0716 116.299 87.5151C116.447 87.6742 116.648 87.9586 116.902 88.3683C117.197 88.6865 117.425 89.0335 117.584 89.4094C117.744 89.7852 117.788 90.173 117.717 90.5728C117.688 90.881 117.443 91.059 116.982 91.1067C116.938 91.5691 116.738 91.9494 116.384 92.2477C116.124 92.5798 115.906 92.8204 115.728 92.9696C114.547 93.3971 113.825 93.9623 113.562 94.6653C112.98 94.6166 112.478 94.7558 112.056 95.0829C111.728 95.4438 111.374 95.7421 110.993 95.9778C110.721 96.0931 110.47 96.1627 110.24 96.1866C110.009 96.2104 109.792 96.2656 109.589 96.3521C109.385 96.4386 109.208 96.5877 109.057 96.7995C108.906 97.0113 108.729 97.1605 108.525 97.247C106.68 97.8087 105.232 98.4599 104.184 99.2007C103.204 99.9126 102.136 100.514 100.981 101.004C100.574 101.177 99.9829 101.391 99.2091 101.645C98.5298 101.933 97.7561 102.188 96.8877 102.409C96.114 102.663 95.3269 102.886 94.5265 103.078C93.794 103.241 93.1768 103.392 92.6747 103.532C92.1047 103.7 91.5952 103.916 91.1463 104.18C90.7654 104.416 90.4036 104.791 90.0611 105.306C89.0569 105.585 88.1133 105.911 87.2303 106.286C86.3472 106.661 85.4302 107.05 84.4792 107.454C83.8413 107.651 83.2299 107.91 82.6452 108.232C82.087 108.617 81.5362 108.925 80.9928 109.156C80.0832 109.468 79.2208 109.797 78.4057 110.143C77.5905 110.489 76.7621 110.804 75.9204 111.087C75.5542 111.168 75.188 111.25 74.8217 111.332C74.5234 111.384 74.2178 111.514 73.9047 111.721C73.6596 111.899 73.4484 112.062 73.2713 112.211C73.1207 112.423 72.9228 112.618 72.6777 112.796C71.6293 113.537 70.2988 113.991 68.6862 114.158C67.1681 114.358 65.7903 114.795 64.5529 115.469C64.4052 115.309 64.2029 115.211 63.9459 115.172C63.6889 115.133 63.4187 115.063 63.1351 114.961C62.8782 114.923 62.6552 114.869 62.4661 114.802C62.3184 114.643 62.2121 114.392 62.147 114.05C62.1765 113.742 62.2592 113.559 62.395 113.501C62.5988 113.415 62.776 113.266 62.9266 113.054C63.2278 112.63 63.5409 112.423 63.8657 112.433C64.1906 112.443 64.4889 112.391 64.7606 112.275C64.9644 112.189 65.1549 112.071 65.3321 111.922C65.5093 111.773 65.6658 111.669 65.8017 111.612C66.5755 111.357 67.4098 111.151 68.3047 110.993C69.173 110.772 69.7326 110.202 69.9835 109.282C69.0057 107.923 68.3129 106.479 67.9051 104.952C67.4972 103.425 67.0761 101.866 66.6417 100.276C66.6299 100.059 66.5501 99.8713 66.4024 99.7122C66.2281 99.4904 66.1217 99.2399 66.0833 98.9605C66.0093 98.0307 65.8985 97.4863 65.7508 97.3272C65.6031 97.1681 65.4761 96.9633 65.3697 96.7127C65.1835 96.2742 64.9442 95.7104 64.6517 95.0213C64.4271 94.3033 64.1553 93.5685 63.8362 92.8168C63.5171 92.065 63.2246 91.3759 62.9587 90.7495C62.6662 90.0604 62.4062 89.5423 62.1787 89.1953C61.9513 88.8482 61.8729 88.4749 61.9438 88.0751C62.0146 87.6754 62.0381 87.2588 62.0145 86.8252C61.9908 86.3917 61.8991 85.987 61.7396 85.6111C61.648 85.2064 61.5564 84.8017 61.4647 84.397C61.3613 83.7755 61.2032 83.2142 60.9904 82.7131C60.7777 82.2119 60.5517 81.6794 60.3124 81.1156C60.1291 80.3062 59.9164 79.8051 59.6742 79.6121C59.4733 79.3277 59.3403 79.0145 59.2753 78.6725C59.1689 78.4219 59.1098 78.1882 59.098 77.9714C59.1541 77.7258 59.1762 77.4947 59.1643 77.2779C59.0077 76.5311 58.7019 75.8107 58.2469 75.1166C57.8599 74.3937 57.5408 73.642 57.2896 72.8614C56.8376 71.7964 56.514 70.7509 56.3189 69.7247C56.0973 68.6359 55.7944 67.5446 55.4102 66.4508C55.3039 66.2002 55.1635 65.964 54.9892 65.7423C54.815 65.5205 54.6613 65.253 54.5284 64.9398C54.1827 64.1254 53.8503 63.3424 53.5312 62.5906C53.2534 61.7474 52.9624 60.8729 52.658 59.967C52.593 59.6249 52.5147 59.2515 52.4231 58.8468C52.3314 58.4421 52.2531 58.0688 52.1881 57.7267C51.7389 56.2908 51.1539 54.9126 50.4331 53.5921C49.7122 52.2716 49.1272 50.8934 48.678 49.4575C48.5185 49.0817 48.3929 48.6914 48.3013 48.2867C48.1831 47.8193 48.1594 47.3858 48.2302 46.9861C47.7073 46.3208 47.3469 45.6606 47.1489 45.0053C46.9923 44.2585 46.8223 43.4804 46.6391 42.671C46.2197 42.6273 45.7722 42.7063 45.2967 42.9081C44.7946 43.0473 44.3192 43.2491 43.8703 43.5136C43.4214 43.7781 42.9725 44.0426 42.5236 44.3071C42.116 44.4801 41.7498 44.5616 41.4249 44.5516C41.1384 44.8211 40.8859 45.0761 40.6674 45.3167C40.4902 45.4659 40.2318 45.6125 39.8922 45.7567C39.6471 45.9347 39.3281 46.0331 38.9353 46.052C38.5838 45.9794 38.3254 46.126 38.16 46.492C37.6609 46.2603 37.203 45.9371 36.7865 45.5224C36.4113 45.0163 36.4496 44.4455 36.9014 43.8101C37.2026 43.3866 37.8361 42.8959 38.8018 42.3381C39.8355 41.7515 40.9636 41.1987 42.1863 40.6797C43.409 40.1607 44.611 39.6874 45.7924 39.2599C46.9471 38.7697 47.8095 38.4406 48.3795 38.2726C49.3837 37.9942 50.0157 37.689 50.2756 37.3569C50.6033 36.9959 50.9371 36.7434 51.2767 36.5992C51.6843 36.4262 52.1863 36.287 52.7829 36.1817C53.3795 36.0763 53.9082 35.9997 54.3689 35.952C55.7246 35.7463 56.7642 35.268 57.4877 34.5173C58.2112 33.7666 58.9672 33.1869 59.7557 32.7783C60.6506 32.6202 61.2886 32.4234 61.6695 32.1877C62.0505 31.9521 62.3975 31.7309 62.7105 31.524C63.0886 31.6593 63.4401 31.7319 63.765 31.7418C64.0899 31.7518 64.4487 31.7473 64.8416 31.7285ZM50.0149 42.1253C50.4669 43.1902 50.8983 44.3009 51.309 45.4574C51.7611 46.5224 52.0433 47.6594 52.1557 48.8685C52.6786 49.5338 53.0139 49.9459 53.1616 50.105C53.3772 50.2353 53.5116 50.3631 53.5648 50.4884C53.6446 50.6763 53.6904 50.8787 53.7022 51.0954C53.7141 51.3122 53.7599 51.5146 53.8397 51.7025C54.0111 52.2951 54.1825 52.8878 54.3539 53.4804C54.5253 54.0731 54.7099 54.697 54.9079 55.3523C55.5432 57.2267 56.2597 59.1035 57.0575 60.9829C57.8966 62.7708 58.6337 64.6019 59.269 66.4763C59.2809 66.693 59.3267 66.8954 59.4065 67.0833C59.5542 67.2424 59.6546 67.3846 59.7078 67.5099C59.8615 68.6276 59.9901 69.4971 60.0936 70.1186C60.2384 70.6486 60.3832 71.1786 60.528 71.7086C60.661 72.0218 60.8279 72.3206 61.0288 72.605C61.271 72.7979 61.4246 73.0654 61.4897 73.4075C62.1573 74.6027 62.7364 75.8725 63.2269 77.2169C63.6908 78.4986 64.0144 79.5442 64.1976 80.3536C64.304 80.6042 64.3424 80.8836 64.3129 81.1919C64.3514 81.4713 64.4238 81.7363 64.5301 81.9868C64.5952 82.3289 64.7281 82.6421 64.929 82.9265C65.1033 83.1483 65.223 83.4302 65.288 83.7722C65.3915 84.3937 65.427 85.044 65.3946 85.7231C65.4036 86.3108 65.4937 86.901 65.6651 87.4936C65.8365 88.0862 66.0419 88.6645 66.2812 89.2283C66.5884 89.7632 66.8617 90.3126 67.1011 90.8764C67.2074 91.127 67.3477 91.3632 67.522 91.5849C67.6963 91.8067 67.8367 92.0428 67.943 92.2934C68.0436 93.2858 68.2741 94.1121 68.6345 94.7724C69.0629 95.4038 69.3894 96.0785 69.6139 96.7964C69.8917 97.6396 70.1355 98.4973 70.3453 99.3693C70.6231 100.213 70.9008 101.056 71.1786 101.899C71.2702 102.304 71.3958 102.694 71.5554 103.07C71.7562 103.354 71.9364 103.684 72.096 104.06C72.1581 104.773 72.3369 105.289 72.6323 105.607C72.9011 105.863 73.068 106.161 73.1331 106.503C73.1302 106.874 73.08 107.228 72.9826 107.565C72.8852 107.902 72.9029 108.228 73.0359 108.541C73.4553 108.585 73.9234 108.46 74.4402 108.166C74.9571 107.873 75.3454 107.56 75.6053 107.228C76.2816 107.311 77.0274 107.179 77.8425 106.833C78.699 106.396 79.5554 105.958 80.4119 105.521C81.2418 105.021 81.9963 104.626 82.6756 104.338C83.3283 103.987 83.8097 103.894 84.1199 104.058C84.3236 103.971 84.616 103.81 84.997 103.575C85.378 103.339 85.6098 103.13 85.6924 102.947C85.5329 102.571 85.3527 102.241 85.1518 101.956C84.9509 101.672 84.7028 101.371 84.4074 101.052C84.0469 100.392 83.7722 100.028 83.5832 99.9605C83.3941 99.8929 83.2065 99.6398 83.0204 99.2013C82.8756 98.6713 82.7161 98.2954 82.5418 98.0737C82.2464 97.7555 81.9303 97.483 81.5936 97.2563C81.2981 96.9381 81.0234 96.5741 80.7694 96.1645C80.6364 95.8512 80.5374 95.5236 80.4724 95.1815C80.4753 94.8106 80.4442 94.4542 80.3792 94.1121C80.128 93.3315 79.7882 92.6255 79.3599 91.9941C78.9729 91.2712 78.5519 90.5627 78.0969 89.8686L76.2357 86.3336C75.8073 85.7022 75.3657 85.0394 74.9107 84.3454C74.4558 83.6513 74.0141 82.9885 73.5857 82.3571C73.1042 81.6004 72.7039 80.8462 72.3848 80.0944C72.0657 79.3427 71.6787 78.6198 71.2237 77.9257C71.0228 77.6413 70.788 77.3713 70.5192 77.1158C70.2504 76.8602 70.0495 76.5758 69.9165 76.2626C69.8397 75.7038 69.754 75.4075 69.6594 75.3736C69.5649 75.3398 69.4911 75.2603 69.4379 75.135C69.0095 74.5036 68.6151 73.8577 68.2547 73.1974C67.8943 72.5372 67.5678 71.8625 67.2753 71.1734C67.0626 70.6723 66.8705 70.1253 66.6991 69.5327C66.5277 68.9401 66.3357 68.3932 66.1229 67.892L65.4804 66.9449C65.6989 66.7042 65.6132 66.4079 65.2233 66.0559C64.8334 65.7039 64.5985 65.4339 64.5188 65.246C64.4153 64.6245 64.3163 64.2969 64.2218 64.2631C64.1007 64.1666 64.0135 64.0557 63.9603 63.9304C63.6797 63.4581 63.433 62.9714 63.2203 62.4702C63.0755 61.9402 62.8967 61.4246 62.684 60.9235C62.4152 60.6679 62.1685 60.1812 61.9439 59.4632C61.7193 58.7453 61.446 58.1959 61.124 57.8151C60.3855 57.0196 59.9232 56.4025 59.7371 55.964C59.5509 55.5255 59.2836 55.0845 58.935 54.641C58.6662 54.3855 58.4107 54.1612 58.1684 53.9683C57.9675 53.6839 57.7667 53.3995 57.5658 53.1151C57.3559 52.2431 57.0694 51.6624 56.706 51.373C56.4106 51.0548 56.1832 50.7077 56.0236 50.3319C55.7961 49.9848 55.5554 49.6065 55.3013 49.1968C55.1152 48.7583 54.9423 48.3511 54.7828 47.9752C54.5287 47.5655 54.3559 47.1583 54.2642 46.7536C54.214 46.2575 54.109 45.8214 53.9495 45.4456C53.7486 45.1612 53.5404 44.9538 53.3247 44.8236C53.177 44.6645 53.05 44.4596 52.9436 44.209C52.6511 43.5199 52.5211 42.8358 52.5535 42.1567C52.5593 41.4149 52.1708 40.8774 51.388 40.5443C50.8062 40.4956 50.4931 40.7024 50.4489 41.1647C50.446 41.5356 50.3013 41.8558 50.0149 42.1253Z" fill="#B6EADA"/>
</g>
<defs>
<filter id="filter0_d_21_171" x="0" y="0" width="125.75" height="125.469" filterUnits="userSpaceOnUse" color-interpolation-filters="sRGB">
<feFlood flood-opacity="0" result="BackgroundImageFix"/>
<feColorMatrix in="SourceAlpha" type="matrix" values="0 0 0 0 0 0 0 0 0 0 0 0 0 0 0 0 0 0 127 0" result="hardAlpha"/>
<feOffset dx="4" dy="6"/>
<feGaussianBlur stdDeviation="2"/>
<feComposite in2="hardAlpha" operator="out"/>
<feColorMatrix type="matrix" values="0 0 0 0 0.0117647 0 0 0 0 0 0 0 0 0 0.109804 0 0 0 1 0"/>
<feBlend mode="normal" in2="BackgroundImageFix" result="effect1_dropShadow_21_171"/>
<feBlend mode="normal" in="SourceGraphic" in2="effect1_dropShadow_21_171" result="shape"/>
</filter>
</defs>
</svg>
