<svg width="173" height="174" viewBox="0 0 173 174" fill="none" xmlns="http://www.w3.org/2000/svg">
<path fill-rule="evenodd" clip-rule="evenodd" d="M172.5 87C172.5 135.049 133.996 174 86.5 174C39.0035 174 0.5 135.049 0.5 87C0.5 38.9512 39.0035 0 86.5 0C133.996 0 172.5 38.9512 172.5 87ZM34 127.5C33.9167 127.417 33.7917 127.167 33.625 126.75C33.5417 126.417 33.4167 126 33.25 125.5C33.0833 125.083 32.9167 124.708 32.75 124.375C32.5833 124.042 32.5 123.833 32.5 123.75C33 122.833 33.4583 122.292 33.875 122.125L35.125 121.625C35.625 122.458 36 122.875 36.25 122.875C36.5 122.875 36.5833 123 36.5 123.25C36.8333 123.417 37.1667 123.458 37.5 123.375C37.9167 123.292 38.2083 123.333 38.375 123.5C38.7083 123.667 39.0417 123.75 39.375 123.75H40.5C41.1667 122.667 41.5417 121.958 41.625 121.625C41.4583 120.542 41.4583 119.5 41.625 118.5C41.875 117.5 41.9583 116.458 41.875 115.375C41.7083 114.542 41.6667 114.125 41.75 114.125C41.8333 114.042 41.875 113.917 41.875 113.75C41.875 113.167 41.7917 112.625 41.625 112.125C41.4583 111.542 41.375 111 41.375 110.5C41.375 110.083 41.4583 109.75 41.625 109.5C41.7917 109.25 41.875 108.958 41.875 108.625C41.875 107.958 41.7917 107.458 41.625 107.125C41.5417 106.708 41.7083 106.125 42.125 105.375C41.9583 104.708 41.9167 104.25 42 104C42.1667 103.75 42.2917 103.5 42.375 103.25C42.375 103 42.3333 102.792 42.25 102.625C42.25 102.375 42.2917 102.125 42.375 101.875C42.4583 101.375 42.5833 100.917 42.75 100.5C42.9167 100 43 99.5 43 99C43 98.6667 42.9167 98.375 42.75 98.125C42.6667 97.875 42.625 97.5833 42.625 97.25C42.4583 96.6667 42.4167 96.125 42.5 95.625C42.5833 95.0417 42.625 94.4583 42.625 93.875C42.5417 93.625 42.625 93.4167 42.875 93.25C43.125 93.0833 43.25 92.8333 43.25 92.5L44 87.625C44.0833 86.7917 44.0833 85.9583 44 85.125C44 84.2917 44.0833 83.4167 44.25 82.5C44.3333 81.6667 44.4583 80.875 44.625 80.125C44.7917 79.2917 44.875 78.4583 44.875 77.625C44.9583 76.9583 44.9167 76.3333 44.75 75.75C44.6667 75.1667 44.625 74.5417 44.625 73.875C44.625 72.7917 44.7083 71.75 44.875 70.75C45.0417 69.75 45.125 68.7083 45.125 67.625C45.125 66.5417 45.0833 65.4583 45 64.375C44.9167 63.2917 44.9583 62.2083 45.125 61.125C45.2083 61.0417 45.2917 60.6667 45.375 60C45.5417 59.3333 45.625 58.9167 45.625 58.75C45.625 58.1667 45.5833 57.625 45.5 57.125C45.4167 56.5417 45.375 55.9167 45.375 55.25C45.5417 54.3333 45.5833 53.7917 45.5 53.625C45.4167 53.4583 45.375 53.2917 45.375 53.125C45.2917 52.2917 45.2917 51.4583 45.375 50.625C45.4583 49.7917 45.4583 48.9583 45.375 48.125C45.2083 47.125 45.1667 46.5833 45.25 46.5C45.4167 46.3333 45.5417 46.1667 45.625 46C45.7083 44.9167 45.7917 44.125 45.875 43.625C46.0417 43.0417 46.1667 42.4167 46.25 41.75C46.4167 40.5833 46.5 39.4167 46.5 38.25V34.75C45.6667 34.1667 44.625 33.9583 43.375 34.125C42.2083 34.2083 41.0417 34.4167 39.875 34.75C38.7083 35.0833 37.6667 35.4583 36.75 35.875C35.8333 36.2083 35.2917 36.375 35.125 36.375C34.7917 36.375 34.5 36.2917 34.25 36.125C34 35.9583 33.9167 35.6667 34 35.25C33.4167 34.9167 33.0833 34.625 33 34.375C32.9167 34.125 32.9167 33.875 33 33.625C33.1667 33.375 33.3333 33.1667 33.5 33C33.75 32.75 33.8333 32.5 33.75 32.25C34.9167 32.0833 36.0417 31.7917 37.125 31.375C38.2917 30.9583 39.5 30.7083 40.75 30.625C41.1667 30.5417 41.5417 30.5417 41.875 30.625H43C43.8333 30.5417 44.625 30.4583 45.375 30.375C46.125 30.2083 46.9167 30.0417 47.75 29.875C48.3333 29.875 48.75 29.8333 49 29.75C49.25 29.5833 49.5 29.5 49.75 29.5C50.75 29.5833 51.2917 29.625 51.375 29.625C51.5417 29.5417 51.7083 29.5 51.875 29.5C52.375 29.4167 52.875 29.4583 53.375 29.625C53.875 29.7083 54.375 29.7083 54.875 29.625C55.2083 29.625 55.5833 29.5417 56 29.375C56.4167 29.2083 56.75 29.1667 57 29.25C57.5833 29.0833 58.125 29.0833 58.625 29.25C59.125 29.4167 59.6667 29.5 60.25 29.5C60.9167 29.5 61.5417 29.4167 62.125 29.25C62.7083 29.0833 63.3333 29 64 29C64.6667 29 65.3333 29.125 66 29.375C66.75 29.5417 67.4583 29.625 68.125 29.625C68.5417 29.625 68.875 29.5833 69.125 29.5C69.375 29.4167 69.6667 29.4167 70 29.5C70.5 29.5 70.9583 29.5833 71.375 29.75C71.875 29.9167 72.375 30.0417 72.875 30.125C73.2083 30.2083 73.5 30.2083 73.75 30.125C74.0833 29.9583 74.4167 29.875 74.75 29.875C74.9167 29.875 75.125 29.9167 75.375 30C75.625 30.0833 75.875 30.125 76.125 30.125C76.7083 30.125 77.2917 30.0833 77.875 30C78.5417 29.8333 79.125 30.0417 79.625 30.625C81.0417 30.7917 82.3333 31.0833 83.5 31.5C84.75 31.8333 86 32.25 87.25 32.75C87.75 32.9167 88.125 33.1667 88.375 33.5C88.7083 33.75 89.2083 33.7917 89.875 33.625C90.4583 34.2917 91 34.875 91.5 35.375C92.0833 35.7917 92.8333 36.0833 93.75 36.25C94.1667 36.6667 94.5 37.125 94.75 37.625C95.5833 38.125 96.125 38.4167 96.375 38.5C96.625 38.5833 96.8333 38.6667 97 38.75C97.25 39.0833 97.5 39.375 97.75 39.625C98.0833 39.7917 98.4583 40 98.875 40.25C99.2917 40.5833 99.75 40.9167 100.25 41.25C100.5 41.5833 100.667 41.9167 100.75 42.25C100.917 42.5833 101.083 42.875 101.25 43.125C101.417 43.4583 101.667 43.6667 102 43.75C102.333 43.75 102.458 44.0417 102.375 44.625C103.292 45.625 103.875 46.4167 104.125 47C104.458 47.5 104.833 48 105.25 48.5C105.75 49.1667 106 49.5833 106 49.75C106 49.8333 106.042 49.9583 106.125 50.125C106.542 50.4583 106.708 50.7917 106.625 51.125C106.625 51.375 106.833 51.4583 107.25 51.375C107.083 51.7917 107.125 52.0833 107.375 52.25C107.625 52.4167 107.667 52.7917 107.5 53.375C107.917 53.875 108.292 54.4167 108.625 55C109.042 55.5833 109.125 56.2083 108.875 56.875C109.375 57.5417 109.792 58.25 110.125 59C110.458 59.6667 110.917 60.2917 111.5 60.875C111.583 61.4583 111.625 61.9583 111.625 62.375C111.708 62.7917 111.958 63.2083 112.375 63.625C112.458 64.5417 112.625 65.4167 112.875 66.25L113.875 68.75C114.042 69.1667 114.083 69.625 114 70.125V71.375C114.083 71.7917 114.208 72.1667 114.375 72.5C114.542 72.8333 114.667 73.2083 114.75 73.625C114.833 73.9583 114.833 74.25 114.75 74.5C114.667 74.75 114.667 75 114.75 75.25L115 76L115.25 76.75C115.417 77.9167 115.375 79.0833 115.125 80.25C114.875 81.3333 114.667 82.4583 114.5 83.625L114.25 86.125C114.25 86.9583 114.167 87.7917 114 88.625C113.917 88.9583 113.792 89.2917 113.625 89.625L113.375 90.625C113.042 92.0417 112.833 93.4167 112.75 94.75C112.75 96.0833 112.542 97.4583 112.125 98.875C111.958 99.5417 111.708 100.208 111.375 100.875C111.125 101.542 110.917 102.25 110.75 103C110.75 103.167 110.5 103.583 110 104.25C109.583 104.917 109.292 105.292 109.125 105.375C109.125 105.708 109.042 105.958 108.875 106.125C108.792 106.292 108.792 106.583 108.875 107C108.806 107 108.651 107.115 108.41 107.344C108.531 107.534 108.632 107.724 108.712 107.913C108.872 108.289 109.079 108.682 109.333 109.092L109.776 109.569C109.965 109.637 110.099 109.764 110.179 109.952C110.38 110.237 110.479 110.564 110.476 110.935C110.447 111.243 110.532 111.54 110.733 111.824C110.677 112.07 110.857 112.4 111.274 112.815C111.758 113.2 112.048 113.41 112.142 113.444C112.517 113.95 112.825 114.485 113.064 115.049C113.303 115.613 113.611 116.148 113.986 116.654C114.361 117.16 114.507 117.505 114.425 117.687C114.41 117.842 114.463 117.967 114.584 118.063C115.376 118.984 115.857 119.741 116.029 120.333C116.2 120.926 116.405 121.504 116.645 122.068L117.243 123.478C118.05 124.244 118.512 124.861 118.63 125.329C118.748 125.796 119.078 126.1 119.618 126.24C119.71 126.645 119.89 126.975 120.159 127.23C120.428 127.486 120.608 127.816 120.699 128.221C121.021 128.602 121.324 128.843 121.608 128.944C121.959 129.017 122.187 129.364 122.29 129.985C123.46 129.341 124.688 128.93 125.976 128.754C127.332 128.548 128.621 128.185 129.844 127.666C130.183 127.522 130.428 127.344 130.579 127.132C130.797 126.892 131.076 126.699 131.416 126.555C131.62 126.469 131.85 126.445 132.107 126.484C132.364 126.523 132.629 126.484 132.9 126.369C133.538 126.172 134.089 125.864 134.553 125.446C135.084 124.998 135.642 124.613 136.227 124.291C136.703 124.09 137.191 123.919 137.693 123.78C138.195 123.641 138.684 123.47 139.16 123.268C139.499 123.124 139.982 122.845 140.608 122.432L143.563 121.177C144.623 120.653 145.489 119.953 146.159 119.077C145.875 118.976 145.728 118.817 145.716 118.6C145.745 118.292 145.72 118.044 145.641 117.856C145.493 117.697 145.324 117.583 145.135 117.516C144.988 117.357 144.874 117.183 144.794 116.995C144.446 116.552 144.231 116.236 144.152 116.048C144.004 115.889 143.937 115.732 143.952 115.578C143.94 115.361 143.847 115.142 143.673 114.92C142.92 114.279 142.463 113.77 142.304 113.395C142.118 112.956 141.788 112.652 141.316 112.483C141.428 111.992 141.336 111.587 141.041 111.269C140.745 110.951 140.518 110.604 140.358 110.228C140.184 110.006 140.057 109.801 139.977 109.613C139.965 109.397 139.92 109.194 139.84 109.006C139.666 108.785 139.438 108.438 139.157 107.965L138.519 106.462L137.881 104.958C137.736 104.428 137.645 104.024 137.606 103.744C137.488 103.277 137.343 102.747 137.172 102.154C137.068 101.533 136.856 101.032 136.534 100.651C135.981 100.294 135.699 100.007 135.687 99.7901C135.717 99.4818 135.678 99.2024 135.572 98.9518C135.424 98.7927 135.256 98.6794 135.067 98.6117C134.919 98.4526 134.805 98.2791 134.726 98.0912C134.593 97.7779 134.541 97.4672 134.57 97.159C134.6 96.8507 134.616 96.5111 134.619 96.1403C134.906 95.8708 135.273 95.6038 135.722 95.3394C136.212 94.9834 136.701 94.8129 137.188 94.8278C138.039 95.1321 138.558 95.5035 138.744 95.9421C138.877 96.2553 138.928 96.566 138.899 96.8743C138.911 97.091 138.949 97.3704 139.014 97.7125C139.36 98.5269 139.74 99.3269 140.153 100.112C140.608 100.806 140.974 101.575 141.252 102.418C141.518 103.045 141.716 103.7 141.846 104.384C141.95 105.006 142.134 105.63 142.4 106.256C142.601 106.54 142.789 106.794 142.963 107.015C143.205 107.208 143.393 107.461 143.526 107.775C143.671 108.305 143.817 108.649 143.964 108.808C144.419 109.502 144.666 109.989 144.705 110.268C144.716 110.485 144.776 110.719 144.882 110.969C145.083 111.254 145.331 111.555 145.626 111.873C145.922 112.192 146.17 112.493 146.371 112.777C146.583 113.278 146.75 113.577 146.872 113.674C147.034 113.679 147.142 113.744 147.195 113.869C147.544 114.313 147.811 114.754 147.997 115.192C148.183 115.631 148.451 116.072 148.799 116.515C148.947 116.674 149.148 116.959 149.402 117.368C149.697 117.686 149.925 118.033 150.084 118.409C150.244 118.785 150.288 119.173 150.217 119.573C150.188 119.881 149.943 120.059 149.482 120.107C149.438 120.569 149.238 120.949 148.884 121.248C148.624 121.58 148.406 121.82 148.228 121.97C147.047 122.397 146.325 122.962 146.062 123.665C145.48 123.617 144.978 123.756 144.556 124.083C144.228 124.444 143.874 124.742 143.493 124.978C143.221 125.093 142.97 125.163 142.74 125.187C142.509 125.21 142.292 125.266 142.089 125.352C141.885 125.439 141.708 125.588 141.557 125.799C141.406 126.011 141.229 126.16 141.025 126.247C139.18 126.809 137.732 127.46 136.684 128.201C135.704 128.913 134.636 129.514 133.481 130.004C133.074 130.177 132.483 130.391 131.709 130.645C131.03 130.933 130.256 131.188 129.388 131.409C128.614 131.663 127.827 131.886 127.026 132.078C126.294 132.241 125.677 132.392 125.175 132.532C124.605 132.7 124.095 132.916 123.646 133.18C123.265 133.416 122.904 133.791 122.561 134.306C121.557 134.585 120.613 134.911 119.73 135.286L116.979 136.454C116.341 136.651 115.73 136.91 115.145 137.232C114.587 137.617 114.036 137.925 113.493 138.156C112.583 138.468 111.721 138.797 110.906 139.143C110.091 139.489 109.262 139.804 108.42 140.087L107.322 140.331C107.023 140.384 106.718 140.514 106.405 140.721C106.16 140.899 105.948 141.062 105.771 141.211C105.621 141.423 105.423 141.618 105.178 141.796C104.129 142.537 102.799 142.991 101.186 143.158C99.6681 143.358 98.2903 143.795 97.0529 144.469C96.9052 144.309 96.7029 144.21 96.4459 144.172C96.1889 144.133 95.9187 144.063 95.6351 143.961C95.3782 143.923 95.1552 143.869 94.9661 143.802C94.8184 143.643 94.7121 143.392 94.647 143.05C94.6765 142.742 94.7592 142.559 94.895 142.501C95.0988 142.415 95.276 142.266 95.4266 142.054C95.7278 141.63 96.0409 141.423 96.3657 141.433C96.6906 141.443 96.9889 141.391 97.2606 141.275C97.4644 141.189 97.6549 141.071 97.8321 140.922C98.0093 140.773 98.1658 140.669 98.3017 140.612C99.0755 140.357 99.9098 140.151 100.805 139.993C101.673 139.772 102.233 139.202 102.484 138.282C101.506 136.923 100.813 135.479 100.405 133.952C99.9972 132.425 99.5761 130.866 99.1417 129.276C99.1299 129.059 99.0501 128.871 98.9024 128.712C98.7281 128.49 98.6217 128.24 98.5833 127.96C98.5093 127.031 98.3985 126.486 98.2508 126.327C98.1031 126.168 97.9761 125.963 97.8697 125.713L97.1517 124.021C96.9271 123.303 96.6553 122.568 96.3362 121.817L95.4587 119.749C95.3108 119.401 95.1711 119.096 95.0398 118.835L95 118.875C94.3333 119.042 94 119.167 94 119.25C94 119.333 93.9167 119.417 93.75 119.5C93.5833 119.667 93.375 119.75 93.125 119.75C92.875 119.75 92.625 119.833 92.375 120C91.2083 120.583 90.4167 121.042 90 121.375C89.5833 121.625 89.125 121.875 88.625 122.125C88.4583 122.208 88.25 122.292 88 122.375C87.75 122.375 87.5 122.458 87.25 122.625C86 123.208 85.125 123.542 84.625 123.625C84.125 123.792 83.625 124 83.125 124.25L81.875 124.75C81.4583 125 81 125.208 80.5 125.375L79.125 125.125C78.2917 125.542 77.75 125.792 77.5 125.875C77.3333 125.958 77.1667 126 77 126C76.3333 126.167 75.5833 126.25 74.75 126.25C73.9167 126.25 73.2083 126.5 72.625 127C70.9583 126.833 69.2917 126.917 67.625 127.25C66.0417 127.667 64.4583 127.958 62.875 128.125C62.0417 128.292 61.5417 128.333 61.375 128.25C61.2917 128.167 61.1667 128.125 61 128.125C60.1667 128.208 59.375 128.375 58.625 128.625C57.875 128.875 57.0833 129.042 56.25 129.125C55.5833 129.125 54.875 129.042 54.125 128.875C53.375 128.708 52.625 128.625 51.875 128.625C51.625 128.625 51.375 128.667 51.125 128.75C50.9583 128.833 50.75 128.875 50.5 128.875C49.6667 128.708 49.2083 128.667 49.125 128.75C49.125 128.833 49.0417 128.875 48.875 128.875C48.625 128.875 48.375 128.792 48.125 128.625C47.9583 128.458 47.75 128.375 47.5 128.375C47 128.375 46.5 128.417 46 128.5C45.5833 128.583 45.125 128.625 44.625 128.625C44.4583 128.625 44.25 128.583 44 128.5C43.75 128.417 43.5 128.375 43.25 128.375C43 128.375 42.75 128.417 42.5 128.5C42.3333 128.583 42.125 128.625 41.875 128.625C41.2083 128.292 40.7917 128.125 40.625 128.125C40.5417 128.208 40.4167 128.208 40.25 128.125C39.5833 128.042 39 127.917 38.5 127.75C38 127.583 37.4167 127.5 36.75 127.5C36.3333 127.417 35.875 127.417 35.375 127.5C34.875 127.667 34.4167 127.667 34 127.5ZM98.2432 116.755C98.3979 117.257 98.5772 117.748 98.7812 118.228C99.0884 118.763 99.3617 119.313 99.6011 119.876C99.7074 120.127 99.8477 120.363 100.022 120.585C100.196 120.807 100.337 121.043 100.443 121.293C100.544 122.286 100.774 123.112 101.135 123.772C101.563 124.404 101.889 125.078 102.114 125.796C102.392 126.64 102.635 127.497 102.845 128.369L103.679 130.899C103.77 131.304 103.896 131.694 104.055 132.07C104.256 132.354 104.436 132.684 104.596 133.06C104.658 133.773 104.837 134.289 105.132 134.607C105.401 134.862 105.568 135.161 105.633 135.503C105.63 135.874 105.58 136.228 105.483 136.565C105.385 136.902 105.403 137.228 105.536 137.541C105.955 137.585 106.423 137.46 106.94 137.166C107.457 136.873 107.845 136.56 108.105 136.228C108.782 136.311 109.527 136.179 110.343 135.833L112.912 134.521C113.742 134.021 114.496 133.626 115.176 133.338C115.828 132.987 116.31 132.894 116.62 133.058C116.824 132.971 117.116 132.81 117.497 132.574C117.878 132.339 118.11 132.13 118.192 131.947C118.033 131.571 117.853 131.241 117.652 130.956C117.451 130.672 117.203 130.371 116.907 130.052C116.547 129.392 116.272 129.028 116.083 128.96C115.894 128.893 115.707 128.64 115.52 128.201C115.376 127.671 115.216 127.295 115.042 127.074C114.746 126.755 114.43 126.483 114.094 126.256C113.798 125.938 113.523 125.574 113.269 125.164C113.136 124.851 113.037 124.524 112.972 124.182C112.975 123.811 112.944 123.454 112.879 123.112C112.628 122.331 112.288 121.625 111.86 120.994C111.473 120.271 111.052 119.563 110.597 118.869L108.736 115.334C108.307 114.702 107.866 114.039 107.411 113.345C106.956 112.651 106.514 111.989 106.086 111.357C105.844 110.977 105.623 110.598 105.422 110.219C105.203 110.656 104.937 111 104.625 111.25C104.208 111.5 103.917 111.708 103.75 111.875C102.833 112.792 101.917 113.625 101 114.375C100.083 115.125 99.1667 115.917 98.25 116.75C98.2477 116.752 98.2455 116.753 98.2432 116.755ZM103.381 106.492C103.338 106.536 103.294 106.581 103.25 106.625C102.917 106.958 102.625 107.292 102.375 107.625L102 108.125C101.417 108.625 100.833 109 100.25 109.25C99.75 109.417 99.375 109.917 99.125 110.75C98.4583 110.917 97.9167 111.208 97.5 111.625L97.3376 111.787C97.1872 111.541 97.0847 111.274 97.0301 110.987C96.9238 110.736 96.8514 110.471 96.8129 110.192C96.8424 109.884 96.804 109.604 96.6976 109.354C96.5144 108.544 96.1908 107.499 95.7269 106.217C95.2364 104.872 94.6573 103.603 93.9897 102.407C93.9246 102.065 93.771 101.798 93.5288 101.605C93.3279 101.321 93.161 101.022 93.028 100.709L92.5936 99.1186C92.4902 98.4971 92.3615 97.6275 92.2078 96.5099C92.1546 96.3846 92.0542 96.2424 91.9065 96.0833C91.8267 95.8954 91.7809 95.693 91.769 95.4762C91.1337 93.6019 90.3966 91.7707 89.5575 89.9829C88.7597 88.1035 88.0432 86.2267 87.4079 84.3523C87.2099 83.697 87.0253 83.073 86.8539 82.4804L86.3397 80.7025C86.2599 80.5145 86.2141 80.3122 86.2022 80.0954C86.1904 79.8786 86.1446 79.6763 86.0648 79.4884C86.0116 79.3631 85.8772 79.2353 85.6616 79.105C85.5139 78.9459 85.1786 78.5338 84.6557 77.8685C84.5433 76.6594 84.2611 75.5223 83.809 74.4574C83.3983 73.3009 82.9669 72.1902 82.5149 71.1252C82.8013 70.8558 82.946 70.5356 82.9489 70.1647C82.9931 69.7023 83.3062 69.4955 83.888 69.5443C84.6708 69.8774 85.0592 70.4149 85.0535 71.1567C85.0211 71.8358 85.1511 72.5199 85.4436 73.209C85.55 73.4596 85.677 73.6644 85.8247 73.8235C86.0404 73.9538 86.2486 74.1611 86.4495 74.4455C86.609 74.8214 86.714 75.2574 86.7642 75.7536C86.8559 76.1583 87.0287 76.5655 87.2828 76.9752L87.8013 78.1968C88.0554 78.6065 88.2961 78.9848 88.5236 79.3319C88.6832 79.7077 88.9106 80.0548 89.206 80.373C89.5694 80.6623 89.8559 81.243 90.0658 82.1151L90.6684 82.9683C90.9107 83.1612 91.1662 83.3854 91.435 83.641C91.7836 84.0845 92.0509 84.5255 92.2371 84.964C92.4232 85.4025 92.8855 86.0195 93.624 86.815C93.946 87.1959 94.2193 87.7453 94.4439 88.4632C94.6685 89.1811 94.9152 89.6679 95.184 89.9234C95.3967 90.4246 95.5755 90.9402 95.7203 91.4702C95.933 91.9713 96.1797 92.4581 96.4603 92.9304C96.5135 93.0557 96.6007 93.1666 96.7218 93.263C96.8163 93.2968 96.9153 93.6245 97.0188 94.246C97.0985 94.4339 97.3334 94.7039 97.7233 95.0559C98.1132 95.4079 98.1989 95.7042 97.9804 95.9448L98.6229 96.892C98.8357 97.3931 99.0277 97.94 99.1991 98.5327C99.3705 99.1253 99.5626 99.6722 99.7753 100.173C100.068 100.862 100.394 101.537 100.755 102.197C101.115 102.858 101.51 103.504 101.938 104.135C101.991 104.26 102.065 104.34 102.159 104.374C102.254 104.407 102.34 104.704 102.417 105.263C102.549 105.576 102.75 105.86 103.019 106.116C103.148 106.238 103.268 106.363 103.381 106.492ZM105.883 102.98C105.855 102.892 105.823 102.807 105.788 102.723L105.265 102.057L104.742 101.392C104.582 101.016 104.47 100.657 104.405 100.315C104.381 99.8817 104.256 99.4914 104.028 99.1444C103.922 98.8938 103.761 98.7034 103.545 98.5731L103.022 97.9079C102.715 97.3729 102.442 96.8235 102.203 96.2597L101.445 94.4743C101.391 94.349 101.386 94.2407 101.427 94.1492C101.442 93.9951 101.248 93.6336 100.846 93.0648C100.793 92.9395 100.666 92.7347 100.465 92.4503C100.264 92.1659 100.124 91.9297 100.044 91.7418L98.8477 88.9228C98.7945 88.7975 98.762 88.6265 98.7501 88.4097C98.7383 88.1929 98.6925 87.9906 98.6127 87.8026C98.465 87.6435 98.3306 87.5158 98.2095 87.4193L97.9702 86.8555C97.8904 86.6676 97.8446 86.4652 97.8327 86.2484C97.8209 86.0317 97.7884 85.8606 97.7352 85.7353C97.5343 85.451 97.1577 85.1303 96.6053 84.7733C96.0943 84.3248 95.948 83.9802 96.1666 83.7396C96.1281 83.4602 96.0011 83.2554 95.7855 83.1251C95.5698 82.9948 95.3882 82.8501 95.2405 82.691C95.0396 82.4066 94.8727 82.1078 94.7397 81.7946C94.6481 81.3899 94.4679 81.0598 94.1991 80.8042C93.8239 80.2981 93.462 79.8233 93.1134 79.3798C92.7382 78.8736 92.397 78.3531 92.0898 77.8181C91.7559 77.2205 91.4088 76.5915 91.0484 75.9313C90.688 75.271 90.3954 74.5819 90.1709 73.864C89.9581 73.3628 89.6908 72.9218 89.3688 72.541C89.1147 72.1313 88.9153 71.6615 88.7705 71.1315C88.7586 70.9147 88.7601 70.7292 88.7748 70.5751L88.7393 69.9248C88.7008 69.6454 88.5945 69.3948 88.4202 69.1731C88.2459 68.9513 88.2208 68.7032 88.3448 68.4288C88.6578 68.222 89.0727 67.9719 89.5896 67.6786C90.0798 67.3227 90.5213 67.1352 90.9141 67.1164C90.985 66.7166 91.2375 66.4616 91.6716 66.3512C92.0792 66.1783 92.7525 65.7815 93.6917 65.1611C94.2351 64.9304 94.684 64.666 95.0383 64.3677C95.4607 64.0405 96.1207 63.6125 97.0185 63.0835C97.2784 62.7514 97.3684 62.4914 97.2886 62.3035C97.2089 62.1156 97.2265 61.5905 97.3416 60.7284C96.9487 60.7473 96.5899 60.7518 96.265 60.7418C95.9401 60.7319 95.5886 60.6593 95.2105 60.524C94.8975 60.7308 94.5505 60.9521 94.1695 61.1877C93.7886 61.4233 93.1506 61.6202 92.2557 61.7783C91.4672 62.1869 90.7112 62.7666 89.9877 63.5173C89.2642 64.268 88.2246 64.7462 86.8689 64.952C86.4082 64.9997 85.8795 65.0763 85.2829 65.1816C84.6863 65.287 84.1842 65.4262 83.7767 65.5992C83.4371 65.7434 83.1033 65.9959 82.7756 66.3568C82.5157 66.6889 81.8837 66.9942 80.8795 67.2726C80.3095 67.4406 79.4471 67.7697 78.2924 68.2598C77.111 68.6874 75.909 69.1606 74.6863 69.6796C73.4636 70.1986 72.3355 70.7514 71.3018 71.3381C70.3361 71.8959 69.7026 72.3865 69.4014 72.8101C68.9496 73.4455 68.9113 74.0162 69.2865 74.5224C69.703 74.937 70.1609 75.2602 70.66 75.4919C70.8254 75.126 71.0838 74.9794 71.4353 75.052C71.8281 75.0331 72.1471 74.9347 72.3922 74.7567C72.7318 74.6125 72.9902 74.4659 73.1674 74.3167C73.3859 74.0761 73.6384 73.8211 73.9249 73.5516C74.2498 73.5615 74.616 73.48 75.0236 73.307L76.3703 72.5136C76.8192 72.2491 77.2946 72.0473 77.7967 71.9081C78.2722 71.7063 78.7197 71.6272 79.1391 71.671C79.3223 72.4804 79.4923 73.2585 79.6489 74.0052C79.8469 74.6605 80.2073 75.3208 80.7302 75.986C80.6594 76.3858 80.6831 76.8193 80.8013 77.2867C80.8929 77.6914 81.0185 78.0816 81.178 78.4575C81.6272 79.8934 82.2122 81.2716 82.9331 82.5921C83.6539 83.9126 84.2389 85.2908 84.6881 86.7267C84.7531 87.0687 84.8314 87.4421 84.9231 87.8468C85.0147 88.2515 85.093 88.6249 85.158 88.967C85.4624 89.8728 85.7534 90.7474 86.0312 91.5906L87.0284 93.9398C87.1613 94.253 87.3149 94.5205 87.4892 94.7422C87.6635 94.964 87.8039 95.2001 87.9102 95.4507C88.2944 96.5445 88.5973 97.6358 88.8189 98.7247C89.014 99.7508 89.3376 100.796 89.7896 101.861C90.0408 102.642 90.3599 103.394 90.7469 104.117C91.2019 104.811 91.5077 105.531 91.6643 106.278C91.6762 106.495 91.6541 106.726 91.598 106.971C91.6098 107.188 91.6689 107.422 91.7753 107.672C91.8403 108.014 91.9733 108.328 92.1742 108.612C92.4164 108.805 92.6291 109.306 92.8124 110.116L93.4904 111.713C93.7032 112.214 93.8613 112.776 93.9647 113.397L94.219 114.52C94.0837 114.639 93.9273 114.757 93.75 114.875C93.5 115.042 93.2083 115.167 92.875 115.25C92.625 115.333 92.375 115.458 92.125 115.625L91.375 116.125C91.2083 116.208 91 116.333 90.75 116.5C90.25 116.75 89.7083 117 89.125 117.25C88.5417 117.417 87.75 117.792 86.75 118.375C86.5833 118.458 86.4167 118.5 86.25 118.5C86.1667 118.5 85.7917 118.708 85.125 119.125C83.7083 119.958 82.4167 120.542 81.25 120.875C80.9167 121.042 80.5833 121.125 80.25 121.125C79.9167 121.125 79.625 121.208 79.375 121.375C79.2083 121.458 79.125 121.542 79.125 121.625L78 121.875L77 121.625C76.8333 121.625 76.7083 121.708 76.625 121.875C76.625 121.958 76.125 122.042 75.125 122.125C74.875 122.208 74.625 122.333 74.375 122.5C74.125 122.667 73.625 122.708 72.875 122.625C72.2917 122.625 71.5 122.792 70.5 123.125C69.5 123.458 68.5833 123.5 67.75 123.25C67.5 123.333 67.2083 123.458 66.875 123.625C66.625 123.792 66.375 123.917 66.125 124C65.375 124.167 64.625 124.25 63.875 124.25C63.125 124.25 62.375 124.292 61.625 124.375C61.4583 124.125 61.25 123.833 61 123.5C60.75 123.083 60.6667 122.458 60.75 121.625C60.5833 121.458 60.375 121.208 60.125 120.875C59.9583 120.458 60.0833 120.167 60.5 120C60.1667 119.583 59.9583 119 59.875 118.25C59.7917 117.5 59.7917 116.75 59.875 116C59.9583 115.167 60.0417 114.375 60.125 113.625C60.2083 112.792 60.25 112.125 60.25 111.625C60.25 110.958 60.2083 110.333 60.125 109.75C60.125 109.167 60.25 108.25 60.5 107C60.5 106.583 60.4167 106.208 60.25 105.875C60.1667 105.458 60.3333 105.042 60.75 104.625C60.3333 102.458 60.25 100.375 60.5 98.375C60.6667 97.4583 60.9167 96.5 61.25 95.5C61.6667 94.4167 61.5833 93.4167 61 92.5C61.1667 91.9167 61.25 91.3333 61.25 90.75C61.25 90.0833 61.2917 89.4167 61.375 88.75C61.4583 88.4167 61.5833 88.0833 61.75 87.75C61.9167 87.4167 62.0417 87.0833 62.125 86.75C62.2083 86.4167 62.2083 86.0833 62.125 85.75C62.0417 85.3333 62.2083 85.0417 62.625 84.875C62.375 83.7083 62.1667 82.4583 62 81.125C61.9167 79.7917 61.9583 78.5417 62.125 77.375C62.2917 76.0417 62.375 74.7083 62.375 73.375C62.375 72.0417 62.2083 70.75 61.875 69.5C62.2083 68.5833 62.375 67.5 62.375 66.25C62.375 64.9167 62.2917 63.75 62.125 62.75C62.0417 62.3333 61.9583 62 61.875 61.75C61.7917 61.5 61.9583 61.2083 62.375 60.875C62.125 59.5417 62 58.25 62 57C62 55.75 62.0417 54.4583 62.125 53.125C62.125 52.2083 61.9583 51.2917 61.625 50.375C61.375 49.4583 61.25 48.5417 61.25 47.625C61.1667 47.2083 61.2083 46.9167 61.375 46.75C61.5417 46.5 61.5 46.0833 61.25 45.5V39.25C61.1667 38.9167 61.1667 38.625 61.25 38.375C61.3333 38.125 61.375 37.875 61.375 37.625C61.375 36.9583 61.2917 36.2917 61.125 35.625C60.9583 34.9583 61 34.2917 61.25 33.625C61.8333 33.5417 62.625 33.4167 63.625 33.25C64.625 33.0833 65.375 33.2083 65.875 33.625L67.125 33.375C67.5417 33.2083 68.0417 33.375 68.625 33.875C69.0417 33.875 69.4167 33.8333 69.75 33.75C70.1667 33.6667 70.5833 33.625 71 33.625C71.6667 33.625 72.375 33.6667 73.125 33.75C73.9583 33.8333 75.125 34.0833 76.625 34.5C77.2917 34.6667 78.0417 34.75 78.875 34.75C79.7083 34.6667 80.4167 34.9167 81 35.5C81.3333 35.3333 81.6667 35.3333 82 35.5C82.3333 35.5833 82.625 35.7083 82.875 35.875L83.875 36.375C84.2083 36.4583 84.5833 36.4167 85 36.25C85.0833 36.4167 85.375 36.6667 85.875 37C86.4583 37.25 87.0417 37.5417 87.625 37.875C88.2917 38.2083 88.875 38.5417 89.375 38.875C89.9583 39.125 90.3333 39.25 90.5 39.25C90.5 39.3333 90.7083 39.5833 91.125 40C91.5417 40.3333 92 40.75 92.5 41.25C93 41.6667 93.4583 42.0417 93.875 42.375C94.2917 42.7083 94.7917 42.9583 95.375 43.125C95.5417 43.2917 95.7083 43.5833 95.875 44C96.125 44.3333 96.2917 44.5833 96.375 44.75C96.7917 45 97.25 45.3333 97.75 45.75C98.3333 46.0833 99.0417 46.7083 99.875 47.625C99.7917 48.2917 99.9167 48.75 100.25 49C100.667 49.25 100.917 49.625 101 50.125C101.667 50.4583 102.083 50.9583 102.25 51.625C102.5 52.2083 102.875 52.7083 103.375 53.125V54.625C103.625 54.9583 103.833 55.2917 104 55.625C104.167 55.875 104.25 56.2083 104.25 56.625C104.917 57.2917 105.25 58 105.25 58.75C105.417 58.9167 105.708 59.4583 106.125 60.375L107.25 62.25C107.083 62.25 107.042 62.4167 107.125 62.75C107.208 63 107.333 63.3333 107.5 63.75C107.667 64.0833 107.833 64.4583 108 64.875C108.167 65.2083 108.417 65.75 108.75 66.5C108.917 66.8333 108.958 67.2083 108.875 67.625C108.875 67.9583 108.958 68.3333 109.125 68.75C109.292 69.1667 109.375 69.7083 109.375 70.375C109.458 71.0417 109.542 71.5833 109.625 72C109.708 72.4167 109.792 72.75 109.875 73C110.042 73.25 110.208 73.5417 110.375 73.875C110.458 74.2917 110.5 74.9167 110.5 75.75C110.583 76.0833 110.625 76.4167 110.625 76.75C110.625 77 110.75 77.2083 111 77.375C110.833 77.625 110.667 77.9167 110.5 78.25C110.417 78.5833 110.583 78.8333 111 79L110.875 79.625C110.792 79.9583 110.667 80.375 110.5 80.875L110.25 82.125C110.167 82.4583 110.125 82.6667 110.125 82.75C110.042 83 110.042 83.25 110.125 83.5C110.292 83.6667 110.375 83.875 110.375 84.125C110.375 85.5417 110.125 87.0833 109.625 88.75C109.125 90.3333 108.833 91.9167 108.75 93.5C108.667 93.6667 108.667 93.8333 108.75 94C108.917 94.1667 108.833 94.4583 108.5 94.875C108.083 95.7917 107.875 96.8333 107.875 98C107.958 99.1667 107.542 100.125 106.625 100.875C106.458 101.125 106.417 101.417 106.5 101.75C106.572 102.037 106.366 102.446 105.883 102.98ZM51.625 33.625C51.375 34.7083 51.1667 35.8333 51 37C50.8333 38.0833 50.75 39.2083 50.75 40.375C50.9167 41.9583 50.875 43.1667 50.625 44C50.375 44.8333 50.4167 45.625 50.75 46.375C49.9167 46.9583 49.5417 47.7083 49.625 48.625C49.7083 49.5417 49.8333 50.375 50 51.125C49.9167 52.625 49.8333 53.7083 49.75 54.375C49.6667 55.0417 49.6667 55.75 49.75 56.5C49.8333 56.9167 49.9167 57.2917 50 57.625C50.1667 57.9583 50.25 58.3333 50.25 58.75C50.25 59.4167 50.1667 60.125 50 60.875C49.8333 61.625 49.6667 62.3333 49.5 63C49.4167 63.5833 49.375 64.1667 49.375 64.75V66.5C49.375 66.8333 49.4167 67.1667 49.5 67.5C49.5833 67.75 49.5833 68.0417 49.5 68.375C49.5 68.7083 49.4167 69 49.25 69.25C49.1667 69.5 49.125 69.7917 49.125 70.125C49.0417 70.875 49.0417 71.5833 49.125 72.25C49.2917 72.8333 49.2083 73.4583 48.875 74.125L49.625 75.625C49.875 76.125 49.8333 76.625 49.5 77.125C49.5 77.5417 49.5417 77.875 49.625 78.125C49.7083 78.375 49.6667 78.6667 49.5 79L49.25 80.5C49.25 80.9167 49.2083 81.375 49.125 81.875C49.0417 82.125 48.9167 82.375 48.75 82.625C48.6667 82.875 48.625 83.1667 48.625 83.5C48.625 83.75 48.6667 84 48.75 84.25C48.8333 84.5 48.875 84.7917 48.875 85.125C48.875 85.625 48.8333 86.1667 48.75 86.75C48.75 87.25 48.7083 87.7917 48.625 88.375L48.375 89.125C48.2917 89.2917 48.2083 89.5 48.125 89.75V90.5C48.2083 90.6667 48.2083 90.875 48.125 91.125C48.0417 91.4583 47.9167 91.7917 47.75 92.125C47.6667 92.375 47.5833 92.6667 47.5 93C47.25 94.1667 47.1667 95.3333 47.25 96.5C47.3333 97.6667 47.3333 98.8333 47.25 100C47.25 100.333 47.1667 100.667 47 101C46.9167 101.25 47 101.542 47.25 101.875C46.9167 102.542 46.6667 103.083 46.5 103.5C46.8333 104.5 46.7083 105.667 46.125 107C46.2083 107.417 46.2917 107.792 46.375 108.125C46.4583 108.458 46.5 108.833 46.5 109.25C46.5 109.5 46.4167 109.75 46.25 110C46.1667 110.25 46.125 110.5 46.125 110.75C46.0417 111 46.0417 111.25 46.125 111.5C46.2083 111.75 46.25 112.042 46.25 112.375C46.25 113.292 46.1667 114.167 46 115C45.9167 115.833 45.875 116.708 45.875 117.625C45.875 118.042 45.9583 118.583 46.125 119.25C46.125 119.917 46.0417 120.542 45.875 121.125C45.7917 121.708 45.9167 122.25 46.25 122.75C46.25 123.083 46.125 123.458 45.875 123.875C45.625 124.375 45.625 124.708 45.875 124.875C46.7083 125.125 47.25 125.167 47.5 125C47.8333 124.917 48.125 124.875 48.375 124.875C48.625 124.875 48.8333 124.917 49 125C49.25 125.083 49.5 125.125 49.75 125.125C50.0833 125.125 50.375 125.083 50.625 125C50.875 124.917 51.125 124.875 51.375 124.875C51.625 124.875 51.875 124.917 52.125 125C52.375 125.083 52.625 125.125 52.875 125.125C53.2917 125.125 53.7083 125 54.125 124.75C54.5417 124.5 54.9583 124.458 55.375 124.625C55.2917 123.958 55.2917 123.292 55.375 122.625C55.5417 121.875 55.625 121.167 55.625 120.5C55.5417 119.583 55.4167 118.708 55.25 117.875C55.1667 117.042 55.125 116.208 55.125 115.375C55.2917 114.125 55.3333 113.25 55.25 112.75C55.1667 112.25 55.2917 111.792 55.625 111.375C55.2917 110.625 55.25 109.958 55.5 109.375C55.8333 108.792 55.875 108.083 55.625 107.25C56.2083 106.583 56.4167 105.958 56.25 105.375C56.1667 104.792 56.125 104.167 56.125 103.5C56.2917 102.25 56.2917 101.417 56.125 101C56.0417 100.583 56.0417 100.167 56.125 99.75C56.125 99.0833 56.1667 98.4167 56.25 97.75C56.4167 97.0833 56.5 96.4167 56.5 95.75C56.5833 95.25 56.5833 94.75 56.5 94.25V92.75C56.5 92.5 56.4583 92.25 56.375 92C56.375 91.6667 56.4167 91.375 56.5 91.125C56.9167 90.2083 57.0833 89.3333 57 88.5C56.9167 87.5833 57 86.6667 57.25 85.75C57.5833 85.0833 57.75 84.5833 57.75 84.25C57.8333 83.8333 57.9167 83.375 58 82.875C58.0833 82.375 58.125 81.9583 58.125 81.625V80.875C58.125 80.5417 58.0417 80.25 57.875 80C57.7917 79.6667 57.75 79.3333 57.75 79C57.6667 78.6667 57.6667 78.3333 57.75 78C57.9167 77.6667 57.9583 77.2917 57.875 76.875C57.7917 75.2083 57.7917 73.5417 57.875 71.875C57.9583 70.125 57.9583 68.4167 57.875 66.75C57.875 66.3333 57.8333 65.9583 57.75 65.625V64.625C57.6667 63.625 57.5833 62.6667 57.5 61.75V58.75C57.5 58.5 57.5417 58.25 57.625 58C57.7083 57.75 57.75 57.4583 57.75 57.125C57.75 56.7917 57.7083 56.4583 57.625 56.125C57.5417 55.7917 57.5 55.4167 57.5 55C57.4167 53.3333 57.2917 51.6667 57.125 50C57.0417 48.3333 57 46.6667 57 45C57 44.3333 56.9167 43.5833 56.75 42.75C56.6667 41.8333 56.8333 41.0417 57.25 40.375C56.8333 39.5417 56.6667 38.7083 56.75 37.875C56.8333 36.9583 56.5417 36.0833 55.875 35.25C55.625 35 55.5833 34.6667 55.75 34.25C56 33.75 55.7917 33.4583 55.125 33.375C54.5417 33.7083 53.9583 33.8333 53.375 33.75C52.875 33.6667 52.2917 33.625 51.625 33.625Z" fill="#B6EADA"/>
</svg>
